<?xml version="1.0" encoding="UTF-8" standalone="no"?>
<!-- Created with Inkscape (http://www.inkscape.org/) -->

<svg
   width="96"
   height="96"
   viewBox="0 0 25.399999 25.4"
   version="1.1"
   id="svg1"
   xmlns="http://www.w3.org/2000/svg"
   xmlns:svg="http://www.w3.org/2000/svg">
  <defs
     id="defs1" />
  <g
     id="layer1">
    <path
       id="path1"
       style="fill:#fefefe;fill-opacity:1;stroke-width:0.424632"
       d="M 12.7,-1.6049108e-7 A 12.70025,12.70025 0 0 0 0,12.7 12.70025,12.70025 0 0 0 12.7,25.4 12.70025,12.70025 0 0 0 25.4,12.7 12.70025,12.70025 0 0 0 12.7,-1.6049108e-7 Z M 12.797864,3.6989488 c 1.628417,0 2.890403,0.3988429 3.786032,1.1967676 0.911913,0.7979232 1.367616,1.8324728 1.367616,3.1026378 0,0.7002194 -0.113724,1.3023675 -0.341696,1.8071778 -0.211695,0.488524 -0.529549,0.944227 -0.952936,1.367615 -0.423388,0.423389 -0.944547,0.871324 -1.563345,1.343564 -0.50481,0.39082 -0.895055,0.725038 -1.171886,1.001867 -0.260546,0.276831 -0.439722,0.553361 -0.537426,0.83019 -0.08142,0.276831 -0.122746,0.602452 -0.122746,0.976988 v 0.610409 h -2.613315 v -0.806139 c 0,-0.846775 0.155044,-1.554875 0.464442,-2.124822 0.325683,-0.569944 0.895105,-1.172093 1.709312,-1.807176 0.553662,-0.407103 0.985234,-0.765453 1.294631,-1.074852 0.325685,-0.3093996 0.561718,-0.6108885 0.708275,-0.904003 0.146559,-0.3093979 0.219781,-0.6677472 0.219781,-1.0748505 0,-0.6187991 -0.21967,-1.090866 -0.659342,-1.4165489 -0.423388,-0.325683 -1.034132,-0.4884932 -1.832057,-0.4884932 -0.716505,0 -1.400473,0.1059562 -2.051839,0.3176456 C 9.8499994,6.7686201 9.1987571,7.0373801 8.5473912,7.3630647 L 7.4484883,5.066564 C 8.1975594,4.6757441 9.0038439,4.3501238 9.866904,4.0895777 10.746249,3.8290301 11.72311,3.6989488 12.797864,3.6989488 Z M 12.064711,17.939071 c 0.504808,0 0.93638,0.147283 1.294631,0.440391 0.374535,0.276831 0.562307,0.756664 0.562307,1.4406 0,0.667649 -0.187772,1.148314 -0.562307,1.441428 -0.358251,0.293115 -0.789823,0.439561 -1.294631,0.439561 -0.521094,0 -0.96903,-0.146448 -1.343566,-0.439561 -0.358251,-0.293114 -0.537425,-0.773779 -0.537425,-1.441428 0,-0.683936 0.179174,-1.163769 0.537425,-1.4406 0.374536,-0.293115 0.822472,-0.440391 1.343566,-0.440391 z" />
  </g>
</svg>
