<?xml version="1.0" encoding="UTF-8" standalone="no"?>
<!-- Created with Inkscape (http://www.inkscape.org/) -->

<svg
   width="428.72681"
   height="428.72681"
   viewBox="0 0 428.72681 428.72681"
   version="1.1"
   id="svg1"
   xmlns="http://www.w3.org/2000/svg"
   xmlns:svg="http://www.w3.org/2000/svg">
  <defs
     id="defs1" />
  <g
     id="layer1"
     transform="translate(-41.636604,-41.636604)">
    <rect
       style="fill:#ffffff;fill-opacity:1;stroke:#000000;stroke-width:3.77953;stroke-dasharray:none;stroke-opacity:1"
       id="rect2"
       width="424.94727"
       height="424.94727"
       x="43.526367"
       y="43.526367"
       ry="24.052074" />
    <path
       id="path1"
       style="fill:#000000;fill-opacity:1;stroke-width:0.793833"
       d="m 322.28608,125.52103 c -39.90117,0.92703 -77.19554,20.0725 -101.20793,51.95312 -0.87912,1.16719 -0.38576,2.12937 1.07549,2.12937 h 33.08725 c 1.46125,0 1.6872,0.70312 0.62307,1.7035 -4.03401,3.7923 -6.7585,8.95872 -7.39881,14.75951 -0.16024,1.45168 -0.16024,3.82933 1e-5,5.28103 0.64062,5.80319 3.3673,10.97134 7.40417,14.76402 1.06443,1.00004 0.83867,1.70287 -0.62258,1.70287 h -52.36654 c -1.46125,0 -2.98121,1.13627 -3.36301,2.54673 -0.80412,2.97061 -1.50284,5.96862 -2.09499,8.98862 -0.28116,1.43392 0.70182,2.60137 2.16307,2.60137 h 25.0228 c 1.46125,0 1.59679,0.55954 0.4022,1.3998 -5.47526,3.85119 -9.26329,9.93867 -10.03211,16.93618 -0.15951,1.45179 -0.15966,3.8294 3.2e-4,5.28113 0.52779,4.78945 2.47497,9.1483 5.40591,12.65935 0.93595,1.12121 0.61852,1.93448 -0.84273,1.93448 h -21.46225 c -1.46125,0 -2.52874,1.17893 -2.35147,2.62936 0.6746,5.5196 1.70116,10.9912 3.07356,16.37986 0.36063,1.41603 1.86354,2.55719 3.32479,2.55719 h 33.11264 c 1.46125,0 1.68717,0.70307 0.62299,1.70341 -4.03428,3.79223 -6.75855,8.95852 -7.39876,14.7596 -0.16021,1.45168 -0.16021,3.82933 1e-5,5.28103 0.64053,5.80348 3.36698,10.97149 7.40411,14.76411 1.06447,0.99999 0.83875,1.70278 -0.6225,1.70278 h -14.93294 c -1.46125,0 -1.97696,0.97785 -1.12496,2.16499 23.90959,33.31457 62.10298,53.459 103.09916,54.37676 1.46086,0.0327 3.83031,0.0352 5.29125,0.006 69.97829,-1.39198 126.44782,-57.86338 127.83976,-127.84171 0.0291,-1.46094 0.0291,-3.83038 4e-5,-5.29132 -1.391,-69.97899 -57.86083,-126.44975 -127.8398,-127.84171 -1.46094,-0.0291 -3.83039,-0.0255 -5.29122,0.008 z M 216.17884,327.75119 c -6.87987,-10.34726 -12.24658,-21.62379 -15.938,-33.4885 -0.43411,-1.39525 -1.94495,-2.53417 -3.4062,-2.53417 H 91.011067 c -1.461253,0 -2.066,1.03632 -1.484622,2.37639 1.258156,2.90005 2.044754,5.99642 2.3277,9.16294 0.130011,1.45498 0.130055,3.82964 2.08e-4,5.28463 -0.692608,7.76097 -4.393905,14.90663 -10.249251,19.79088 -1.121713,0.93568 -0.924428,1.59609 0.536825,1.59609 H 215.02019 c 1.46125,0 1.96771,-0.97146 1.15865,-2.18826 z m -21.05073,-60.21717 c -0.31321,-2.95496 -0.52555,-5.91977 -0.63637,-8.88921 -0.0545,-1.46021 -0.0609,-3.82949 -0.0143,-5.28997 0.2011,-6.30746 0.85986,-12.59176 1.9702,-18.804 0.2571,-1.43844 -0.69272,-2.59967 -2.15397,-2.59967 h -84.41537 c -1.46125,0 -1.97883,0.98254 -1.28517,2.26808 1.89741,3.51636 3.06269,7.40716 3.42004,11.41965 0.12959,1.45502 0.12893,3.82969 -0.001,5.28463 -0.58599,6.54006 -3.31222,12.67991 -7.72194,17.39371 -0.99792,1.06672 -0.71064,1.84487 0.75061,1.84487 h 87.7474 c 1.46125,0 2.49437,-1.175 2.34035,-2.62809 z m 5.91992,-52.23714 c 3.99242,-11.93838 9.69098,-23.23619 16.91877,-33.54267 0.83899,-1.19636 0.35643,-2.15069 -1.10482,-2.15069 h -76.86459 c -1.46125,0 -1.95103,0.9631 -1.22128,2.2285 2.1284,3.69072 3.43343,7.82974 3.81864,12.11168 0.13088,1.4549 0.12428,3.82962 -0.0147,5.28377 -0.59536,6.23071 -3.13401,12.09389 -7.22784,16.69513 -0.97097,1.09131 -0.66375,1.89185 0.7975,1.89185 l 61.43881,0 c 1.46125,0 2.99604,-1.13178 3.45948,-2.51757 z m 126.52735,3.06963 c 18.72803,1.29595 33.6938,16.26172 34.98975,34.98975 0.10086,1.45748 0.1008,3.83 -1.2e-4,5.28747 -1.29678,18.72745 -16.26226,33.69371 -34.98963,34.98975 -1.45748,0.10087 -3.83,0.10087 -5.28748,0 -18.72736,-1.29605 -33.69285,-16.26231 -34.98963,-34.98975 -0.10092,-1.45747 -0.10098,-3.82999 -1.2e-4,-5.28747 1.29595,-18.72803 16.26172,-33.69379 34.98975,-34.98975 1.45748,-0.10086 3.83,-0.10086 5.28748,0 z"
       transform="matrix(0.83515952,0,0,0.83515952,32.041858,42.198931)" />
  </g>
</svg>
