<?xml version="1.0" encoding="UTF-8" standalone="no"?>
<!-- Created with Inkscape (http://www.inkscape.org/) -->

<svg
   width="428.72681"
   height="428.72681"
   viewBox="0 0 428.72681 428.72681"
   version="1.1"
   id="svg1"
   sodipodi:docname="zentrox_light.svg"
   inkscape:version="1.3.2 (091e20ef0f, 2023-11-25)"
   xmlns:inkscape="http://www.inkscape.org/namespaces/inkscape"
   xmlns:sodipodi="http://sodipodi.sourceforge.net/DTD/sodipodi-0.dtd"
   xmlns="http://www.w3.org/2000/svg"
   xmlns:svg="http://www.w3.org/2000/svg">
  <sodipodi:namedview
     id="namedview1"
     pagecolor="#ffffff"
     bordercolor="#000000"
     borderopacity="0.25"
     inkscape:showpageshadow="2"
     inkscape:pageopacity="0.0"
     inkscape:pagecheckerboard="0"
     inkscape:deskcolor="#d1d1d1"
     inkscape:zoom="1.984947"
     inkscape:cx="214.11151"
     inkscape:cy="214.3634"
     inkscape:window-width="1920"
     inkscape:window-height="1052"
     inkscape:window-x="0"
     inkscape:window-y="0"
     inkscape:window-maximized="1"
     inkscape:current-layer="layer1" />
  <defs
     id="defs1" />
  <g
     id="layer1"
     transform="translate(-41.636604,-41.636604)">
    <path
       id="path1"
       style="fill:#ffffff;fill-opacity:1;stroke-width:0.908649"
       d="m 317.95215,106.64901 c -45.67226,1.06112 -88.36067,22.97568 -115.84607,59.46733 -1.00628,1.33601 -0.44155,2.43734 1.23105,2.43734 h 37.87279 c 1.6726,0 1.93123,0.80482 0.71319,1.94989 -4.61747,4.3408 -7.73601,10.25446 -8.46893,16.89425 -0.18341,1.66164 -0.18341,4.38318 1e-5,6.04484 0.73328,6.64253 3.85433,12.55818 8.47506,16.89941 1.21839,1.14468 0.95998,1.94916 -0.71262,1.94916 H 181.2761 c -1.67261,0 -3.4124,1.30062 -3.84943,2.91508 -0.92042,3.40025 -1.72019,6.83188 -2.39799,10.28867 -0.32183,1.64132 0.80333,2.97762 2.47593,2.97762 h 28.64195 c 1.6726,0 1.82774,0.64047 0.46036,1.60226 -6.26716,4.40821 -10.60307,11.37615 -11.48309,19.38573 -0.18258,1.66177 -0.18275,4.38327 3.7e-4,6.04497 0.60412,5.48217 2.83293,10.47146 6.18779,14.49033 1.07131,1.28337 0.70798,2.21426 -0.96462,2.21426 h -24.56643 c -1.6726,0 -2.89448,1.34945 -2.69157,3.00966 0.77217,6.31792 1.94721,12.5809 3.5181,18.74895 0.41279,1.62083 2.13308,2.92704 3.80567,2.92704 H 218.315 c 1.6726,0 1.9312,0.80476 0.7131,1.9498 -4.61777,4.3407 -7.73607,10.25422 -8.46887,16.89434 -0.18338,1.66164 -0.18338,4.38318 10e-6,6.04484 0.73317,6.64287 3.85395,12.55835 8.475,16.89951 1.21842,1.14463 0.96006,1.94906 -0.71255,1.94906 h -17.09275 c -1.67259,0 -2.26289,1.11928 -1.28766,2.47812 27.36774,38.133 71.0852,61.191 118.01083,62.24151 1.67215,0.0375 4.38431,0.0402 6.05655,0.007 80.09955,-1.59331 144.73651,-66.2324 146.32977,-146.332 0.0333,-1.67224 0.0333,-4.38439 4e-5,-6.05663 C 468.7463,172.871 404.10899,108.23263 324.00866,106.63934 c -1.67224,-0.0333 -4.3844,-0.0291 -6.05651,0.009 z M 196.49816,338.12859 c -7.87493,-11.84383 -14.01785,-24.75133 -18.24318,-38.33209 -0.4969,-1.59704 -2.22626,-2.9007 -3.89885,-2.9007 H 53.226833 c -1.672599,0 -2.364814,1.18621 -1.699348,2.72011 1.440127,3.3195 2.340495,6.8637 2.664365,10.48821 0.148815,1.66542 0.148865,4.38354 2.38e-4,6.04897 -0.792783,8.88347 -5.029414,17.06264 -11.731644,22.65332 -1.283952,1.07101 -1.058133,1.82694 0.614468,1.82694 H 195.17193 c 1.67259,0 2.25231,-1.11197 1.32623,-2.50476 z m -24.09538,-68.92664 c -0.35852,-3.38234 -0.60157,-6.77597 -0.72841,-10.17489 -0.0625,-1.6714 -0.0697,-4.38337 -0.0164,-6.05508 0.23018,-7.21974 0.98422,-14.41297 2.25516,-21.5237 0.29428,-1.64649 -0.79292,-2.97568 -2.46551,-2.97568 H 74.822916 c -1.672597,0 -2.265037,1.12465 -1.47105,2.59613 2.17184,4.02494 3.505659,8.47848 3.914695,13.07132 0.148333,1.66546 0.147578,4.38359 -0.0011,6.04897 -0.670743,7.48598 -3.79128,14.51386 -8.838797,19.90943 -1.142253,1.221 -0.813423,2.1117 0.859174,2.1117 H 169.72448 c 1.67259,0 2.85514,-1.34494 2.67884,-3.0082 z m 6.77614,-59.79242 c 4.56985,-13.66507 11.09263,-26.59694 19.36581,-38.39408 0.96033,-1.36941 0.40797,-2.46177 -1.26462,-2.46177 h -87.98185 c -1.6726,0 -2.23322,1.1024 -1.39792,2.55083 2.43624,4.22452 3.93002,8.96219 4.37095,13.86344 0.1498,1.66533 0.14225,4.38351 -0.0168,6.04798 -0.68147,7.13189 -3.5873,13.84309 -8.27323,19.10982 -1.11141,1.24915 -0.75976,2.16548 0.91284,2.16548 h 70.32491 c 1.6726,0 3.42937,-1.29548 3.95984,-2.8817 z m 144.82754,3.51361 c 21.43675,1.48339 38.56708,18.61371 40.05047,40.05046 0.1154,1.66829 0.1154,4.38395 -1.3e-4,6.05222 -1.48435,21.43609 -18.61434,38.56698 -40.05034,40.05047 -1.66829,0.11552 -4.38395,0.11552 -6.05223,0 -21.43598,-1.48351 -38.56599,-18.61439 -40.05033,-40.05047 -0.11552,-1.66827 -0.11564,-4.38393 -1.4e-4,-6.05222 1.48339,-21.43675 18.61372,-38.56706 40.05047,-40.05046 1.66828,-0.1154 4.38394,-0.1154 6.05223,0 z" />
  </g>
</svg>
