<?xml version="1.0" encoding="UTF-8" standalone="no"?>
<!-- Created with Inkscape (http://www.inkscape.org/) -->

<svg
   width="428.72681"
   height="428.72681"
   viewBox="0 0 428.72681 428.72681"
   version="1.1"
   id="svg1"
   sodipodi:docname="zentrox_dark_emblem.svg"
   inkscape:version="1.4.1 (93de688d07, 2025-03-30)"
   inkscape:export-filename="zentrox_dark_128.png"
   inkscape:export-xdpi="28.66161"
   inkscape:export-ydpi="28.66161"
   xmlns:inkscape="http://www.inkscape.org/namespaces/inkscape"
   xmlns:sodipodi="http://sodipodi.sourceforge.net/DTD/sodipodi-0.dtd"
   xmlns="http://www.w3.org/2000/svg"
   xmlns:svg="http://www.w3.org/2000/svg">
  <sodipodi:namedview
     id="namedview1"
     pagecolor="#ffffff"
     bordercolor="#000000"
     borderopacity="0.25"
     inkscape:showpageshadow="2"
     inkscape:pageopacity="0.0"
     inkscape:pagecheckerboard="0"
     inkscape:deskcolor="#d1d1d1"
     inkscape:zoom="0.64668221"
     inkscape:cx="403.59855"
     inkscape:cy="384.26911"
     inkscape:window-width="1920"
     inkscape:window-height="1030"
     inkscape:window-x="0"
     inkscape:window-y="16"
     inkscape:window-maximized="1"
     inkscape:current-layer="layer1"
     showgrid="false" />
  <defs
     id="defs1" />
  <g
     id="layer1"
     transform="translate(-41.636604,-41.636604)">
    <path
       id="path1"
       style="fill:#ffffff;fill-opacity:1;stroke-width:0.897563"
       d="m 215.00079,105.868 c -38.54668,23.46525 -64.24129,63.29607 -69.73073,108.08823 -0.20098,1.63991 0.82609,2.30312 2.25691,1.47703 l 32.39866,-18.70537 c 1.43083,-0.82609 2.04958,-0.26533 1.57316,1.31581 -1.80615,5.99395 -1.55318,12.59309 1.09922,18.63515 0.66379,1.51206 2.00796,3.84023 2.98556,5.17112 3.90803,5.32024 9.4997,8.83937 15.59668,10.27093 1.60765,0.37747 1.78392,1.19329 0.35307,2.01939 l -51.2767,29.60462 c -1.43083,0.82609 -2.27678,2.798 -1.85326,4.39496 0.892,3.36338 1.90272,6.694 3.03019,9.98591 0.53533,1.56303 2.15786,2.15045 3.58871,1.32436 l 24.50202,-14.14625 c 1.43084,-0.8261 1.87988,-0.35482 1.18517,1.1433 -3.18408,6.86639 -3.45182,14.96869 -0.24871,22.25519 0.66457,1.51177 2.00856,3.83999 2.98593,5.17105 3.22445,4.3914 7.59532,7.55873 12.45017,9.33974 1.55032,0.56876 1.69928,1.54455 0.26844,2.37065 l -21.01559,12.13335 c -1.43084,0.82609 -1.80962,2.58398 -0.81607,3.90401 3.78099,5.02335 7.87947,9.80073 12.2697,14.30138 1.15366,1.18267 3.27044,1.45044 4.70127,0.62435 l 32.4235,-18.71972 c 1.43084,-0.82611 2.04953,-0.26539 1.57302,1.31576 -1.80643,5.99401 -1.55333,12.59291 1.09934,18.63521 0.66383,1.51204 2.00799,3.84019 2.98555,5.17111 3.90812,5.32059 9.49947,8.83969 15.59671,10.27104 1.60763,0.37739 1.78391,1.19318 0.35308,2.01928 l -14.62217,8.44211 c -1.43083,0.82609 -1.38299,2.07513 0.12235,2.7559 42.24588,19.10431 91.03272,17.23745 131.69457,-5.04044 1.44894,-0.79384 3.77046,-2.13101 5.18454,-2.98539 67.735,-40.92416 91.10406,-128.14448 52.90585,-197.45336 -0.79742,-1.44696 -2.13696,-3.7671 -2.99132,-5.18121 -40.92359,-67.736246 -128.14307,-91.1074 -197.45259,-52.90885 -1.44696,0.79744 -3.76504,2.14053 -5.17698,2.99842 z m 10.42874,258.0075 c -12.58633,-6.2425 -24.21638,-14.25036 -34.53851,-23.78124 -1.21387,-1.1208 -3.33713,-1.38189 -4.76797,-0.5558 L 82.501842,399.3642 c -1.430847,0.82609 -1.437136,2.18273 -0.110315,3.16624 2.871467,2.12841 5.392177,4.71566 7.459375,7.65631 0.949847,1.35121 2.292373,3.67642 2.987793,5.17453 3.709338,7.99101 4.124771,17.08044 1.152521,25.17326 -0.5694,1.55034 -0.0023,2.0855 1.427974,1.25939 l 130.11288,-75.12068 c 1.43083,-0.82609 1.37756,-2.06366 -0.10258,-2.79775 z m -54.65548,-47.06325 c -1.97722,-2.71638 -3.86126,-5.49944 -5.64849,-8.34443 -0.87902,-1.39893 -2.22463,-3.71534 -3.00461,-5.17181 -3.36892,-6.28989 -6.2766,-12.81581 -8.70135,-19.52648 -0.56146,-1.55385 -2.148,-2.15395 -3.57884,-1.32786 l -82.658555,47.72294 c -1.430836,0.8261 -1.382186,2.0808 0.02384,2.94743 3.845829,2.3705 7.186462,5.52156 9.804786,9.24852 0.949467,1.35147 2.291289,3.6771 2.98664,5.17519 3.123528,6.73525 3.925097,14.28856 2.272041,21.3972 -0.374112,1.60869 0.34711,2.20823 1.777933,1.38212 l 85.921205,-49.60662 c 1.43084,-0.82609 1.7782,-2.56069 0.8059,-3.89646 z m -23.73473,-54.49673 c -2.83987,-13.94696 -3.64693,-28.23125 -2.39617,-42.40935 0.14517,-1.64578 -0.86687,-2.30744 -2.2977,-1.48135 l -75.26493,43.45421 c -1.430838,0.82609 -1.365952,2.04605 0.06398,2.87257 4.170602,2.41064 7.788399,5.72576 10.586326,9.7008 0.950655,1.35065 2.286707,3.67967 2.972746,5.18208 2.939456,6.43764 3.768292,13.61398 2.360916,20.43384 -0.333805,1.61753 0.419576,2.22772 1.850422,1.40163 l 60.16013,-34.73347 c 1.43084,-0.82609 2.29385,-2.80199 1.96422,-4.42093 z m 125.62946,-68.52455 c 19.07091,-9.31861 42.18587,-3.12498 54.04247,14.48064 0.92269,1.37015 2.26395,3.6933 2.98908,5.1775 9.31748,19.0708 3.1244,42.18611 -14.48052,54.04241 -1.37009,0.92279 -3.69324,2.26406 -5.17745,2.9892 -19.07033,9.31814 -42.18528,3.12387 -54.04235,-14.48071 -0.9228,-1.37007 -2.26417,-3.69315 -2.98931,-5.17737 -9.31863,-19.07091 -3.12498,-42.18587 14.48065,-54.04247 1.37015,-0.92268 3.69328,-2.26394 5.17743,-2.9892 z" />
  </g>
</svg>
