<?xml version="1.0" encoding="UTF-8" standalone="no"?>
<!-- Created with Inkscape (http://www.inkscape.org/) -->

<svg
   width="428.72681"
   height="428.72681"
   viewBox="0 0 428.72681 428.72681"
   version="1.1"
   id="svg1"
   sodipodi:docname="zentrox_dark.svg"
   inkscape:version="1.4.1 (93de688d07, 2025-03-30)"
   inkscape:export-filename="zentrox_dark_128.png"
   inkscape:export-xdpi="28.66161"
   inkscape:export-ydpi="28.66161"
   xmlns:inkscape="http://www.inkscape.org/namespaces/inkscape"
   xmlns:sodipodi="http://sodipodi.sourceforge.net/DTD/sodipodi-0.dtd"
   xmlns="http://www.w3.org/2000/svg"
   xmlns:svg="http://www.w3.org/2000/svg">
  <sodipodi:namedview
     id="namedview1"
     pagecolor="#ffffff"
     bordercolor="#000000"
     borderopacity="0.25"
     inkscape:showpageshadow="2"
     inkscape:pageopacity="0.0"
     inkscape:pagecheckerboard="0"
     inkscape:deskcolor="#d1d1d1"
     inkscape:zoom="0.64668221"
     inkscape:cx="404.37172"
     inkscape:cy="384.26911"
     inkscape:window-width="1920"
     inkscape:window-height="1030"
     inkscape:window-x="0"
     inkscape:window-y="16"
     inkscape:window-maximized="1"
     inkscape:current-layer="layer1"
     showgrid="false" />
  <defs
     id="defs1" />
  <g
     id="layer1"
     transform="translate(-41.636604,-41.636604)">
    <rect
       style="opacity:1;fill:#0b59ff;fill-opacity:1;stroke-width:2.05556;-inkscape-stroke:none"
       id="rect1"
       width="428.72678"
       height="428.72681"
       x="41.636604"
       y="41.636604"
       ry="131.41832" />
    <path
       id="path1"
       style="fill:#ffffff;fill-opacity:1;stroke-width:0.77784"
       d="m 220.46956,125.89368 c -33.40505,20.33529 -55.67233,54.85319 -60.42955,93.67065 -0.17417,1.42117 0.7159,1.99592 1.95587,1.28002 l 28.07709,-16.21032 c 1.23998,-0.7159 1.7762,-0.22994 1.36332,1.1403 -1.56523,5.19443 -1.346,10.91333 0.9526,16.14946 0.57525,1.31037 1.74013,3.32799 2.58733,4.48136 3.38675,4.61059 8.23256,7.66031 13.51628,8.90092 1.39321,0.32712 1.54597,1.03412 0.30598,1.75003 l -44.43705,25.65574 c -1.23998,0.7159 -1.97309,2.42479 -1.60606,3.80873 0.77302,2.91475 1.64892,5.80111 2.626,8.65392 0.46392,1.35454 1.87003,1.86361 3.11002,1.14771 l 21.23377,-12.25932 c 1.23998,-0.71591 1.62913,-0.3075 1.02708,0.99079 -2.75936,5.95051 -2.99139,12.97206 -0.21553,19.28664 0.57592,1.31012 1.74064,3.32778 2.58764,4.4813 2.79435,3.80564 6.5822,6.55049 10.78948,8.09394 1.34353,0.49289 1.47262,1.33852 0.23263,2.05443 l -18.21238,10.51492 c -1.23998,0.7159 -1.56824,2.23931 -0.70721,3.38326 3.27665,4.3533 6.82845,8.49344 10.63308,12.39376 0.99977,1.02492 2.8342,1.25697 4.07418,0.54107 l 28.09862,-16.22275 c 1.23998,-0.71591 1.77615,-0.22999 1.3632,1.14026 -1.56548,5.19448 -1.34614,10.91318 0.9527,16.14951 0.57528,1.31035 1.74015,3.32796 2.58732,4.48135 3.38682,4.61089 8.23236,7.66059 13.51631,8.90102 1.39319,0.32705 1.54596,1.03402 0.30598,1.74993 l -12.67176,7.31604 c -1.23998,0.7159 -1.19852,1.79834 0.10603,2.3883 36.61082,16.55604 78.89013,14.9382 114.12821,-4.36811 1.25567,-0.68795 3.26753,-1.84676 4.49299,-2.58718 58.70002,-35.4654 78.95195,-111.05165 45.84889,-171.11562 -0.69106,-1.25395 -1.85192,-3.26462 -2.59232,-4.4901 -35.46491,-58.7011 -111.05043,-78.954843 -171.11495,-45.85149 -1.25396,0.69107 -3.26284,1.85501 -4.48644,2.59847 z m 9.03768,223.59262 c -10.90748,-5.40983 -20.98623,-12.34954 -29.93152,-20.60913 -1.05195,-0.9713 -2.892,-1.19756 -4.13198,-0.48166 l -89.79947,51.84576 c -1.23999,0.7159 -1.24544,1.89158 -0.0956,2.7439 2.48845,1.84451 4.67293,4.08665 6.46439,6.63506 0.82315,1.17097 1.9866,3.18603 2.58926,4.48431 3.21456,6.92511 3.57458,14.80213 0.99879,21.81547 -0.49345,1.34355 -0.002,1.80732 1.2375,1.09141 L 229.5961,351.91087 c 1.23998,-0.7159 1.19381,-1.7884 -0.0889,-2.42457 z M 182.1421,308.70068 c -1.71349,-2.35405 -3.34622,-4.76588 -4.89506,-7.23139 -0.76177,-1.21233 -1.92789,-3.21976 -2.60383,-4.48195 -2.91955,-5.4509 -5.43938,-11.10635 -7.5407,-16.9219 -0.48657,-1.34659 -1.86149,-1.86664 -3.10147,-1.15074 l -71.632964,41.35731 c -1.239981,0.71591 -1.19782,1.80325 0.02066,2.55428 3.332845,2.05431 6.22788,4.78506 8.496954,8.01489 0.82282,1.1712 1.98566,3.18662 2.58826,4.48488 2.70689,5.83686 3.40154,12.38265 1.96898,18.54309 -0.32421,1.39411 0.30081,1.91368 1.54078,1.19777 l 74.46042,-42.98974 c 1.23998,-0.7159 1.54101,-2.21913 0.6984,-3.37672 z m -20.56883,-47.22756 c -2.46106,-12.08662 -3.16047,-24.46557 -2.07655,-36.75249 0.12581,-1.42626 -0.75124,-1.99966 -1.99121,-1.28376 l -65.225556,37.65798 c -1.239982,0.7159 -1.183751,1.77313 0.05545,2.4894 3.614297,2.0891 6.749526,4.96202 9.174246,8.40684 0.82385,1.17049 1.98169,3.18885 2.57622,4.49086 2.54737,5.57894 3.26565,11.79805 2.046,17.70823 -0.28928,1.40177 0.36361,1.93057 1.6036,1.21467 L 159.871,265.30438 c 1.23999,-0.7159 1.98788,-2.42824 1.70222,-3.83124 z m 108.87211,-59.38426 c 16.5271,-8.07563 36.55882,-2.70815 46.8339,12.54911 0.79962,1.18739 1.96197,3.20066 2.59038,4.48689 8.07464,16.527 2.70764,36.55902 -12.54901,46.83384 -1.18734,0.79971 -3.20061,1.96207 -4.48684,2.59048 -16.5266,8.07522 -36.55831,2.70719 -46.8338,-12.54917 -0.79971,-1.18732 -1.96216,-3.20053 -2.59057,-4.48677 -8.07565,-16.5271 -2.70815,-36.55882 12.54911,-46.8339 1.18739,-0.79961 3.20065,-1.96196 4.48683,-2.59048 z" />
  </g>
</svg>
